<svg width="16" height="23" viewBox="0 0 16 23" fill="none" xmlns="http://www.w3.org/2000/svg">
<g opacity="0.5">
<path d="M0 0H15.7672V22.3369H0V0Z" fill="white"/>
<g clip-path="url(#clip0)">
<path fill-rule="evenodd" clip-rule="evenodd" d="M7.88361 10.4704C6.79502 10.4704 5.91271 9.53297 5.91271 8.37634C5.91271 7.21971 6.79502 6.28225 7.88361 6.28225C8.97221 6.28225 9.85452 7.21971 9.85452 8.37634C9.85452 9.53297 8.97221 10.4704 7.88361 10.4704ZM7.88361 4.8862C6.06973 4.8862 4.59877 6.44839 4.59877 8.37634C4.59877 10.3043 6.06973 11.8665 7.88361 11.8665C9.6975 11.8665 11.1685 10.3043 11.1685 8.37634C11.1685 6.44839 9.6975 4.8862 7.88361 4.8862ZM7.88361 20.2428C6.79108 20.2491 1.31394 11.2948 1.31394 8.37634C1.31394 4.52183 4.25518 1.39606 7.88361 1.39606C11.512 1.39606 14.4533 4.52183 14.4533 8.37634C14.4533 11.2557 8.95907 20.2491 7.88361 20.2428ZM7.88361 0C3.52989 0 0 3.75051 0 8.37634C0 11.879 6.57296 22.3446 7.88361 22.3369C9.1739 22.3446 15.7672 11.8316 15.7672 8.37634C15.7672 3.75051 12.2373 0 7.88361 0Z" fill="#160D1F"/>
</g>
</g>
<defs>
<clipPath id="clip0">
<rect width="15.7672" height="22.3369" fill="white"/>
</clipPath>
</defs>
</svg>
