<svg width="25" height="25" viewBox="0 0 25 25" fill="none" xmlns="http://www.w3.org/2000/svg">
<circle cx="12.5" cy="12.5" r="11.6832" stroke="black" stroke-width="1.63352"/>
<path d="M11.2752 16.3477C11.1576 16.3477 11.0596 16.3085 10.9812 16.2301C10.9028 16.1517 10.8636 16.0537 10.8636 15.9361V15.152C10.8897 14.4594 11.0662 13.8648 11.3929 13.3682C11.7196 12.8716 12.1966 12.3031 12.8238 11.6628C13.3335 11.1401 13.7059 10.7088 13.9412 10.369C14.1764 10.0293 14.294 9.65682 14.294 9.2517C14.294 8.65057 14.0392 8.17358 13.5295 7.82074C13.0329 7.4679 12.4514 7.29148 11.7849 7.29148C10.2298 7.29148 9.31502 8.07557 9.04059 9.64375C8.97525 9.93125 8.80536 10.075 8.53093 10.075H7.59002C7.45934 10.075 7.35479 10.0358 7.27638 9.95739C7.19798 9.87898 7.15877 9.77443 7.15877 9.64375C7.18491 8.925 7.38746 8.26506 7.76644 7.66392C8.15849 7.04971 8.70735 6.55966 9.41303 6.19375C10.1187 5.82784 10.9289 5.64488 11.8437 5.64488C12.8108 5.64488 13.621 5.81477 14.2744 6.15454C14.9409 6.48125 15.4309 6.9125 15.7446 7.44829C16.0582 7.97102 16.215 8.53295 16.215 9.13409C16.215 9.80057 16.0647 10.3756 15.7642 10.8591C15.4636 11.3426 15.0127 11.9045 14.4116 12.5449C13.915 13.0676 13.5426 13.5119 13.2943 13.8778C13.046 14.2307 12.9022 14.6293 12.863 15.0736C12.8369 15.4395 12.8238 15.7139 12.8238 15.8969C12.7585 16.1974 12.5951 16.3477 12.3338 16.3477H11.2752ZM11.1184 19.5625C10.9877 19.5625 10.8767 19.5233 10.7852 19.4449C10.7068 19.3534 10.6676 19.2423 10.6676 19.1116V17.9159C10.6676 17.7852 10.7068 17.6807 10.7852 17.6023C10.8767 17.5108 10.9877 17.4651 11.1184 17.4651H12.3926C12.5233 17.4651 12.6343 17.5108 12.7258 17.6023C12.8173 17.6807 12.863 17.7852 12.863 17.9159V19.1116C12.863 19.2423 12.8173 19.3534 12.7258 19.4449C12.6343 19.5233 12.5233 19.5625 12.3926 19.5625H11.1184Z" fill="black"/>
</svg>
