<svg width="18" height="19" viewBox="0 0 18 19" fill="none" xmlns="http://www.w3.org/2000/svg">
<path d="M0 0H17.6114V19H0V0Z" fill="white"/>
<path d="M8.48387 17.9113H3.52823C2.18145 17.9113 1.08871 16.8145 1.08871 15.4718V3.52823C1.08871 2.18145 2.18548 1.08871 3.52823 1.08871H8.56452C8.86694 1.08871 9.10887 0.846774 9.10887 0.544355C9.10887 0.241935 8.86694 0 8.56452 0H3.52823C1.58065 0 0 1.58468 0 3.52823V15.4718C0 17.4194 1.58468 19 3.52823 19H8.48387C8.78629 19 9.02823 18.7581 9.02823 18.4556C9.02823 18.1532 8.78226 17.9113 8.48387 17.9113Z" fill="#808080"/>
<path d="M17.4516 9.11691L13.992 5.65723C13.7782 5.44352 13.4355 5.44352 13.2218 5.65723C13.0081 5.87094 13.0081 6.21368 13.2218 6.42739L15.7541 8.95965H4.7097C4.40728 8.95965 4.16534 9.20158 4.16534 9.504C4.16534 9.80642 4.40728 10.0484 4.7097 10.0484H15.7541L13.2218 12.5806C13.0081 12.7943 13.0081 13.1371 13.2218 13.3508C13.3266 13.4556 13.4678 13.5121 13.6049 13.5121C13.742 13.5121 13.8831 13.4597 13.9879 13.3508L17.4476 9.8911C17.6653 9.67336 17.6653 9.32659 17.4516 9.11691Z" fill="#808080"/>
</svg>
