<svg width="19" height="25" viewBox="0 0 19 25" fill="none" xmlns="http://www.w3.org/2000/svg">
<path d="M0 0H18.75V25H0V0Z" fill="white"/>
<path d="M18.5974 5.36094L13.3891 0.152588C13.2914 0.0549316 13.1592 0 13.0208 0H2.0833C0.934863 0 0 0.934326 0 2.08335V22.9167C0 24.0657 0.934863 25 2.08335 25H16.6667C17.8151 25 18.75 24.0657 18.75 22.9167V5.72915C18.75 5.59082 18.6951 5.45859 18.5974 5.36094ZM13.5417 1.77817L16.9718 5.20835H14.5833C14.0085 5.20835 13.5417 4.74092 13.5417 4.1667V1.77817ZM17.7083 22.9167C17.7083 23.4909 17.2414 23.9583 16.6667 23.9583H2.08335C1.50859 23.9583 1.0417 23.4909 1.0417 22.9167V2.08335C1.0417 1.50913 1.50864 1.0417 2.08335 1.0417H12.5V4.1667C12.5 5.31567 13.4349 6.25 14.5833 6.25H17.7083V22.9167Z" fill="#8B868F"/>
<path d="M15.1037 14.5835H3.64536C3.35747 14.5835 3.12451 14.8165 3.12451 15.1043C3.12451 15.3922 3.35747 15.6252 3.64536 15.6252H15.1037C15.3916 15.6252 15.6246 15.3922 15.6246 15.1043C15.6245 14.8165 15.3916 14.5835 15.1037 14.5835Z" fill="#8B868F"/>
<path d="M15.1037 11.4584H3.64536C3.35747 11.4584 3.12451 11.6913 3.12451 11.9792C3.12451 12.2671 3.35747 12.5001 3.64536 12.5001H15.1037C15.3916 12.5001 15.6246 12.2671 15.6246 11.9792C15.6245 11.6913 15.3916 11.4584 15.1037 11.4584Z" fill="#8B868F"/>
<path d="M15.1037 17.7083H3.64536C3.35747 17.7083 3.12451 17.9412 3.12451 18.2291C3.12451 18.517 3.35747 18.75 3.64536 18.75H15.1037C15.3916 18.75 15.6246 18.517 15.6246 18.2291C15.6245 17.9412 15.3916 17.7083 15.1037 17.7083Z" fill="#8B868F"/>
<path d="M9.89536 20.8334H3.64536C3.35747 20.8334 3.12451 21.0663 3.12451 21.3542C3.12451 21.6421 3.35747 21.8751 3.64536 21.8751H9.89536C10.1833 21.8751 10.4162 21.6421 10.4162 21.3542C10.4162 21.0663 10.1833 20.8334 9.89536 20.8334Z" fill="#8B868F"/>
<path d="M8.3335 8.8541C8.3335 9.14199 8.56645 9.37495 8.85435 9.37495H15.1043C15.3922 9.37495 15.6252 9.14199 15.6252 8.8541C15.6252 8.56621 15.3922 8.33325 15.1043 8.33325H8.85435C8.56645 8.3333 8.3335 8.56626 8.3335 8.8541Z" fill="#8B868F"/>
<path d="M4.68701 8.33347H3.64536C3.35747 8.33347 3.12451 8.56643 3.12451 8.85432C3.12451 9.14221 3.35747 9.37517 3.64536 9.37517H4.16621C4.16621 9.66306 4.39917 9.89602 4.68706 9.89602C4.97495 9.89602 5.20791 9.66306 5.20791 9.37517V9.27922C5.81279 9.06345 6.24951 8.49075 6.24951 7.81262C6.24951 6.951 5.54863 6.25012 4.68701 6.25012C4.40015 6.25012 4.16616 6.01668 4.16616 5.72927C4.16616 5.44192 4.40015 5.20842 4.68701 5.20842H5.72866C6.01655 5.20842 6.24951 4.97546 6.24951 4.68757C6.24951 4.39968 6.01655 4.16672 5.72866 4.16672H5.20781C5.20781 3.87883 4.97485 3.64587 4.68696 3.64587C4.39907 3.64587 4.16611 3.87883 4.16611 4.16672V4.26267C3.56123 4.47844 3.12451 5.05115 3.12451 5.72927C3.12451 6.59089 3.82539 7.29177 4.68701 7.29177C4.97388 7.29177 5.20786 7.52522 5.20786 7.81262C5.20786 8.10003 4.97388 8.33347 4.68701 8.33347Z" fill="#8B868F"/>
</svg>
