<svg width="19" height="26" viewBox="0 0 19 26" fill="none" xmlns="http://www.w3.org/2000/svg">
<path d="M0 0H19V25.3333H0V0Z" fill="white"/>
<path d="M16.2156 1.72009H12.1413C11.6796 0.674698 10.6437 0 9.5001 0C8.35628 0 7.32041 0.674698 6.85873 1.72009H2.78417C1.2472 1.72187 0.00178256 2.96657 0 4.50241V22.551C0.00178256 24.0869 1.2472 25.3316 2.78417 25.3333H16.2156C17.7526 25.3316 18.9982 24.0869 19 22.551V4.50241C18.9982 2.96657 17.7526 1.72187 16.2156 1.72009ZM7.31725 2.98676C7.61474 2.98676 7.87222 2.77994 7.93619 2.4892C8.09187 1.78105 8.74964 1.26667 9.5001 1.26667C10.2506 1.26667 10.9081 1.78105 11.0638 2.4892C11.1276 2.77994 11.3851 2.98676 11.683 2.98676H12.9397V3.54251C12.9387 4.3791 12.2603 5.05697 11.4231 5.05796H7.57691C6.73949 5.05697 6.06113 4.3791 6.06014 3.54251V2.98676H7.31725ZM17.7324 22.551C17.7316 23.3878 17.053 24.0659 16.2156 24.0667H2.78417C1.94696 24.0659 1.26859 23.3878 1.2676 22.551V4.50241C1.26859 3.66561 1.94696 2.98775 2.78417 2.98676H4.79253V3.54251C4.79432 5.07834 6.03994 6.32284 7.57691 6.32463H11.4231C12.9601 6.32284 14.2055 5.07834 14.2073 3.54251V2.98676H16.2156C17.053 2.98775 17.7314 3.66561 17.7324 4.50241V22.551Z" fill="black"/>
<path d="M12.6029 11.7341L8.48737 15.8088L6.39747 13.7403C6.15161 13.4963 5.75785 13.4993 5.51512 13.7464C5.27259 13.9938 5.27161 14.3931 5.51316 14.6414L5.52159 14.6497L8.04913 17.1523C8.29284 17.3935 8.68171 17.3935 8.92522 17.1523L13.4786 12.6441C13.7249 12.3986 13.7288 11.9975 13.4878 11.747C13.2465 11.4965 12.8511 11.4909 12.6029 11.7345V11.7341Z" fill="black"/>
</svg>
