<svg width="24" height="17" viewBox="0 0 24 17" fill="none" xmlns="http://www.w3.org/2000/svg">
<g opacity="0.5">
<path d="M1 1H23V16H1V1Z" fill="white"/>
<path d="M11.5489 3.92705C11.8483 3.00574 13.1517 3.00574 13.4511 3.92705L13.9593 5.49139C14.0932 5.90341 14.4772 6.18237 14.9104 6.18237H16.5552C17.524 6.18237 17.9267 7.42199 17.143 7.99139L15.8123 8.9582C15.4618 9.21285 15.3152 9.66422 15.449 10.0762L15.9573 11.6406C16.2567 12.5619 15.2022 13.328 14.4185 12.7586L13.0878 11.7918C12.7373 11.5372 12.2627 11.5372 11.9122 11.7918L10.5815 12.7586C9.7978 13.328 8.74331 12.5619 9.04267 11.6406L9.55095 10.0762C9.68483 9.66422 9.53817 9.21285 9.18768 8.9582L7.85698 7.99139C7.07326 7.42199 7.47604 6.18237 8.44476 6.18237H10.0896C10.5228 6.18237 10.9068 5.90341 11.0407 5.49139L11.5489 3.92705Z" fill="black"/>
<path d="M23 13.5V1H1V16H19.3333" stroke="black"/>
</g>
</svg>
